<?xml version="1.0" standalone="no"?>
<!DOCTYPE svg PUBLIC "-//W3C//DTD SVG 20010904//EN"
 "http://www.w3.org/TR/2001/REC-SVG-20010904/DTD/svg10.dtd">
<svg version="1.0" xmlns="http://www.w3.org/2000/svg"
 width="450.000000pt" height="450.000000pt" viewBox="0 0 450.000000 450.000000"
 preserveAspectRatio="xMidYMid meet">
<metadata>
Created by potrace 1.16, written by Peter Selinger 2001-2019
</metadata>
<g transform="translate(0.000000,450.000000) scale(0.100000,-0.100000)"
fill="#000000" stroke="none">
<path d="M4480 4490 c0 -5 5 -10 10 -10 6 0 10 5 10 10 0 6 -4 10 -10 10 -5 0
-10 -4 -10 -10z"/>
<path d="M1860 4260 c-162 -24 -386 -121 -429 -185 -20 -29 -23 -43 -18 -83 4
-26 27 -209 52 -407 25 -198 52 -416 60 -485 9 -69 17 -136 20 -150 3 -14 11
-81 19 -150 8 -69 27 -215 41 -325 44 -335 43 -310 3 -353 -44 -47 -61 -75
-81 -136 -22 -64 -21 -98 3 -253 11 -71 51 -344 90 -608 117 -796 110 -756
136 -792 29 -38 105 -75 194 -94 98 -21 485 -18 615 6 196 34 335 96 431 191
82 81 83 86 40 395 -20 145 -43 307 -51 359 -8 52 -40 275 -70 495 -30 220
-62 423 -70 452 -18 61 -77 119 -160 157 l-53 24 -11 68 c-6 38 -65 449 -131
914 -94 658 -125 850 -138 869 -28 39 -63 60 -122 77 -65 17 -291 26 -370 14z
m370 -53 c36 -10 64 -26 83 -47 49 -55 21 -91 -128 -165 -180 -89 -329 -121
-522 -113 l-113 5 1 -26 c0 -35 16 -158 48 -381 35 -243 43 -296 56 -405 8
-66 22 -163 30 -215 9 -52 18 -108 20 -125 29 -182 64 -492 64 -573 1 -56 -1
-62 -14 -48 -8 8 -15 22 -15 30 0 9 -4 16 -10 16 -5 0 -10 7 -10 15 0 8 5 15
10 15 6 0 10 -7 10 -15 0 -8 5 -15 10 -15 6 0 10 7 10 15 0 8 -4 15 -9 15 -14
0 -25 39 -22 78 1 17 -3 41 -8 51 -6 10 -15 72 -21 137 -5 66 -14 144 -19 174
-6 30 -14 87 -20 125 -5 39 -17 119 -26 179 -19 118 -54 360 -61 416 -3 19
-14 91 -24 160 -17 107 -38 246 -58 380 -2 19 -13 46 -23 59 -11 14 -19 40
-19 62 0 31 6 42 33 62 83 62 185 105 352 146 60 15 329 7 395 -12z m440
-1947 c0 -5 9 -10 20 -10 11 0 42 -21 69 -47 55 -53 61 -72 80 -223 7 -52 16
-120 21 -150 5 -30 14 -89 19 -130 6 -41 20 -136 30 -210 11 -74 25 -175 31
-225 6 -49 15 -115 21 -145 5 -30 18 -122 30 -205 11 -82 26 -195 34 -249 13
-93 13 -102 -4 -140 -32 -74 -162 -163 -306 -211 -126 -43 -250 -57 -485 -58
-188 0 -225 2 -298 21 -80 21 -124 43 -152 77 -16 19 -23 55 -61 320 -17 116
-35 237 -40 270 -5 33 -13 92 -19 130 -5 39 -18 129 -29 200 -18 115 -42 280
-72 485 -22 152 -22 163 0 221 21 55 92 149 113 149 6 0 19 -11 30 -25 11 -14
25 -25 31 -24 7 1 26 -3 42 -10 17 -7 54 -15 83 -18 28 -3 52 -10 52 -15 0 -6
45 -8 113 -4 147 7 217 16 217 27 0 5 12 9 28 9 67 0 245 87 312 153 42 41 90
61 90 37z"/>
<path d="M2608 643 c7 -3 16 -2 19 1 4 3 -2 6 -13 5 -11 0 -14 -3 -6 -6z"/>
<path d="M2558 623 c7 -3 16 -2 19 1 4 3 -2 6 -13 5 -11 0 -14 -3 -6 -6z"/>
<path d="M2488 603 c7 -3 16 -2 19 1 4 3 -2 6 -13 5 -11 0 -14 -3 -6 -6z"/>
<path d="M2398 583 c7 -3 16 -2 19 1 4 3 -2 6 -13 5 -11 0 -14 -3 -6 -6z"/>
</g>
</svg>
